# xmcd CD database file
#
# Track frame offsets:
#	150
#	16657
#	31981
#	45361
#	59448
#	76706
#	90755
#	103206
#	117726
#	132408
#	147003
#	158779
#
# Disc length: 2341 seconds
#
# Revision: 0
# Processed by: cddbd v1.5.2PL0 Copyright (c) Steve Scherf et al.
# Submitted via: CDex 1.70beta2
#
DISCID=8d09230c
DTITLE=Lillian Askeland - Mi Eiga Hamn
DYEAR=2008
DGENRE=Country
TTITLE0=Mi eiga hamn
TTITLE1=En hederlig mann
TTITLE2=Alle snakker om været
TTITLE3=Det veit vi
TTITLE4=Jeg vil tro
TTITLE5=Gaven til hver kvinne
TTITLE6=N-E-I
TTITLE7=Slik er det for meg
TTITLE8=Eit kort sekund
TTITLE9=Snu deg rundt
TTITLE10=To
TTITLE11=Slik vi helst vil ha det
EXTD=YEAR: 2008
EXTT0=
EXTT1=
EXTT2=
EXTT3=
EXTT4=
EXTT5=
EXTT6=
EXTT7=
EXTT8=
EXTT9=
EXTT10=
EXTT11=
PLAYORDER=
